<svg width="16" height="17" viewBox="0 0 16 17" fill="none" xmlns="http://www.w3.org/2000/svg">
<path fill-rule="evenodd" clip-rule="evenodd" d="M4.5 2C4.63261 2 4.75979 2.05268 4.85355 2.14645C4.94732 2.24021 5 2.36739 5 2.5V3.5H11V2.5C11 2.36739 11.0527 2.24021 11.1464 2.14645C11.2402 2.05268 11.3674 2 11.5 2C11.6326 2 11.7598 2.05268 11.8536 2.14645C11.9473 2.24021 12 2.36739 12 2.5V3.5H12.5C13.0304 3.5 13.5391 3.71071 13.9142 4.08579C14.2893 4.46086 14.5 4.96957 14.5 5.5V13C14.5 13.5304 14.2893 14.0391 13.9142 14.4142C13.5391 14.7893 13.0304 15 12.5 15H3.5C2.96957 15 2.46086 14.7893 2.08579 14.4142C1.71071 14.0391 1.5 13.5304 1.5 13V5.5C1.5 4.96957 1.71071 4.46086 2.08579 4.08579C2.46086 3.71071 2.96957 3.5 3.5 3.5H4V2.5C4 2.36739 4.05268 2.24021 4.14645 2.14645C4.24021 2.05268 4.36739 2 4.5 2ZM13.5 8C13.5 7.73478 13.3946 7.48043 13.2071 7.29289C13.0196 7.10536 12.7652 7 12.5 7H3.5C3.23478 7 2.98043 7.10536 2.79289 7.29289C2.60536 7.48043 2.5 7.73478 2.5 8V13C2.5 13.2652 2.60536 13.5196 2.79289 13.7071C2.98043 13.8946 3.23478 14 3.5 14H12.5C12.7652 14 13.0196 13.8946 13.2071 13.7071C13.3946 13.5196 13.5 13.2652 13.5 13V8Z" fill="black"/>
</svg>
