<svg width="16" height="17" viewBox="0 0 16 17" fill="none" xmlns="http://www.w3.org/2000/svg">
<path fill-rule="evenodd" clip-rule="evenodd" d="M8 2C4.41 2 1.5 4.91 1.5 8.5C1.5 12.09 4.41 15 8 15C11.59 15 14.5 12.09 14.5 8.5C14.5 4.91 11.59 2 8 2ZM8.5 4.5C8.5 4.36739 8.44732 4.24021 8.35355 4.14645C8.25979 4.05268 8.13261 4 8 4C7.86739 4 7.74022 4.05268 7.64645 4.14645C7.55268 4.24021 7.5 4.36739 7.5 4.5V8.5C7.5 8.776 7.724 9 8 9H11C11.1326 9 11.2598 8.94732 11.3536 8.85355C11.4473 8.75979 11.5 8.63261 11.5 8.5C11.5 8.36739 11.4473 8.24022 11.3536 8.14645C11.2598 8.05268 11.1326 8 11 8H8.5V4.5Z" fill="black" fill-opacity="0.7"/>
</svg>
