<svg width="21" height="20" viewBox="0 0 21 20" fill="none" xmlns="http://www.w3.org/2000/svg">
<path d="M16.0565 16.9167L11.3898 12.25C10.9731 12.5833 10.494 12.8472 9.95229 13.0417C9.41062 13.2361 8.83424 13.3333 8.22312 13.3333C6.70924 13.3333 5.42812 12.8092 4.37979 11.7608C3.3309 10.7119 2.80646 9.43056 2.80646 7.91667C2.80646 6.40278 3.3309 5.12139 4.37979 4.0725C5.42812 3.02417 6.70924 2.5 8.22312 2.5C9.73701 2.5 11.0184 3.02417 12.0673 4.0725C13.1156 5.12139 13.6398 6.40278 13.6398 7.91667C13.6398 8.52778 13.5426 9.10417 13.3481 9.64583C13.1537 10.1875 12.8898 10.6667 12.5565 11.0833L17.244 15.7708C17.3967 15.9236 17.4731 16.1111 17.4731 16.3333C17.4731 16.5556 17.3898 16.75 17.2231 16.9167C17.0703 17.0694 16.8759 17.1458 16.6398 17.1458C16.4037 17.1458 16.2092 17.0694 16.0565 16.9167ZM8.22312 11.6667C9.26479 11.6667 10.1503 11.3022 10.8798 10.5733C11.6087 9.84389 11.9731 8.95833 11.9731 7.91667C11.9731 6.875 11.6087 5.98944 10.8798 5.26C10.1503 4.53111 9.26479 4.16667 8.22312 4.16667C7.18146 4.16667 6.2959 4.53111 5.56646 5.26C4.83757 5.98944 4.47312 6.875 4.47312 7.91667C4.47312 8.95833 4.83757 9.84389 5.56646 10.5733C6.2959 11.3022 7.18146 11.6667 8.22312 11.6667Z" fill="black" fill-opacity="0.5"/>
</svg>
